<?xml version="1.0" encoding="UTF-8"?><svg xmlns="http://www.w3.org/2000/svg" xmlns:xlink="http://www.w3.org/1999/xlink" viewBox="0 0 352.96 564.73"><defs><style>.f,.g,.h,.i,.j,.k,.l,.m,.n{stroke-miterlimit:10;}.f,.o,.n{fill:#fff;}.f,.p{stroke-width:.98px;}.f,.n{stroke:#fff;}.g,.h,.j,.k,.l,.p,.q,.r,.m,.s{stroke:#1d1d1b;}.g,.j,.k,.l,.q,.r,.n,.s{stroke-width:1.47px;}.g,.s{fill:#f29100;}.t{isolation:isolate;}.h,.i,.m{stroke-width:1.96px;}.h,.l,.p{fill:none;}.u{filter:url(#b);}.v{mix-blend-mode:soft-light;}.i{fill:#009ee2;opacity:.16;stroke:#009ee2;}.j,.w{fill:#1d1d1b;}.k{fill:#caba9f;}.p,.q,.r,.s{stroke-linecap:round;stroke-linejoin:round;}.q,.m{fill:#b1b1b1;}.r{fill:#d9d9d9;}</style><filter id="b" filterUnits="userSpaceOnUse"><feOffset dx="1.47" dy="1.47"/><feGaussianBlur result="c" stdDeviation="2.45"/><feFlood flood-color="#000" flood-opacity=".25"/><feComposite in2="c" operator="in"/><feComposite in="SourceGraphic"/></filter></defs><g class="t"><g id="a"><image transform="scale(.28)" xlink:href="../../AppData/Local/Temp/Rar$DRa18924.8240/1.png"/><g class="u"><path class="r" d="M147.74,143.86l.2,8.67s-1.33,9.64,18.14,6.37c4.08-.57,4.64-8.43-1.29-8.65,.15-.09-.27-4.3-.27-4.3,0,0-8.32,3.42-16.78-2.09Z"/><path class="r" d="M170.68,145.73l1.13,7.12s.69,8.31,15.5,3.59c3.44-.97,3.53-7.62-1.59-7.16,.12-.1-.96-4.57-.96-4.57,0,0-6.11,4.17-14.09,1.01Z"/><path class="r" d="M196.55,143.67l2.11,6.9s1.83,8.13,15.85,1.41c3.27-1.43,2.44-8.04-2.56-6.87,.1-.12-1.58-4.39-1.58-4.39,0,0-5.47,4.97-13.81,2.96Z"/><path class="r" d="M120.31,139.01l-.38,8.66s-2.09,9.54,19.09,7.5c4.43-.31,5.57-8.12-.8-8.71,.17-.08,0-4.31,0-4.31,0,0-9.19,2.88-17.91-3.15Z"/><path class="g" d="M206.83,126.47s3.3,6.36,3.52,9.93c.19,3.07-9.57,4.78-12.33,5.2-.72,.11-1.48-.13-2.03-.7-1.19-1.24-2.7-4.37-2.33-12.26l13.17-2.17Z"/><path class="k" d="M173.93,110.85c-5.09-11.41-.28-24.91,10.82-30.65,5.35-2.77,12.38-3.87,20.59-2.63,19.03,4.64,19.26,24.55,19.26,24.55,0,0,1.69,22.2-20.87,26.82-13.48,2.76-24.78-6.83-29.8-18.09Z"/><circle class="i" cx="203.48" cy="99.82" r="30.46"/><circle class="h" cx="203.48" cy="99.82" r="30.46"/><path class="m" d="M175.66,84.59c-.64-.11-1.27,.19-1.66,.7-1.99,2.61-9.82,16.98,.11,33.02,11.63,18.79,29.37,14.93,29.37,14.93,0,0,2.78-.85,2.78-2.95-.03-.12-19.07,1.61-28.71-14.47s-.86-30.49-.86-30.49c0,0-.28-.6-1.03-.73Z"/><path class="q" d="M120.89,135.3s-2.15,1.7,0,4.69,10.68,4.9,16.4,2.7c2.64-1.02,1.47-4,1.47-4,0,0-10.41,4.3-17.87-3.39Z"/><path class="q" d="M120.89,135.3s-2.15,1.7,0,4.69,10.68,4.9,16.4,2.7c2.64-1.02,1.47-4,1.47-4,0,0-10.41,4.3-17.87-3.39Z"/><path class="q" d="M147.96,140.07s-1.91,1.85,.36,4.68,10.48,4.12,15.74,1.51c2.43-1.21,1.09-4.09,1.09-4.09,0,0-9.53,5.03-17.19-2.1Z"/><path class="q" d="M170.2,143.7s-1.35,2.08,1.41,3.11c3.18,1.19,9.06,.53,12.62-1.57,1.67-.99,.85-3.08,.85-3.08,0,0-11.86,3.78-14.88,1.54Z"/><path class="q" d="M196.14,141.32s-1.21,1.95,1.65,2.66c3.3,.82,9.06-.5,12.36-2.99,1.55-1.17,.2-3.51,.2-3.51,0,0-6.96,4.41-14.21,3.85Z"/><path class="s" d="M173.03,86.79s-10.4-1.55-17.98,5.35c0,0-20.59-12.78-33.26,6.9-6.56,11.03,.57,24.89,.57,24.89,0,0-2.04,8.94-1.47,11.99s12.33,6,17.87,3.39c1.36-1.92,.91-8.01,.91-8.01,0,0,1.46,2.36,7.8,3.04,.45,.45-.79,6.79,2.15,8.37s9.61,2.71,14.59,0c1.7-1.13,.68-7.69,.68-7.69,0,0,1.92,1.24,4.3,1.58,.23,.34-.6,7.04,2.49,7.75,2.71,.62,12.67-1.84,12.67-1.84,0,0,2.57-.57,1.36-8.95,.42-1.94,2.02-2.63,2.02-2.63,0,0-27.94-13.4-14.7-44.14Z"/><g id="d"><circle class="j" cx="197.27" cy="99.87" r="3.74"/><circle class="n" cx="199.16" cy="98.16" r="1.25"/></g><g id="e"><circle class="j" cx="220.57" cy="94.89" r="3.74"/><circle class="n" cx="222.29" cy="92.83" r="1.25"/></g><ellipse class="j" cx="215.89" cy="109.06" rx="4.14" ry="5.25" transform="translate(-17.07 44) rotate(-11.2)"/><polygon class="f" points="214.35 105.3 215.35 106.3 215.35 104.9 214.35 105.3"/><polygon class="f" points="218.15 112.71 217.15 111.72 217.15 113.12 218.15 112.71"/><polygon class="f" points="212.73 108.12 214.12 107.93 213 107.08 212.73 108.12"/><polygon class="f" points="214.81 113.11 215.01 111.72 213.88 112.56 214.81 113.11"/><polygon class="f" points="219.6 111.01 218.55 110.07 219.95 109.99 219.6 111.01"/><polygon class="f" points="218.38 105.7 217.31 106.61 217.42 105.21 218.38 105.7"/><ellipse class="l" cx="215.89" cy="109.06" rx="4.14" ry="5.25" transform="translate(-17.07 44) rotate(-11.2)"/><path class="p" d="M213.88,101.68c3.42-.65,6.99,1.86,7.77,5.96s-1.53,8.23-4.95,8.88"/><path class="w" d="M138.3,127.18c.36,1.02,.78,2.04,1.39,2.92,.78,.87,1.17,1.41,1.8,2.5,.03,.05,0,.12-.06,.13-1.39,.32-2.51-.88-2.8-2.1-.41-1.13-.56-2.29-.48-3.43,0-.08,.12-.09,.15-.01h0Z"/><path class="w" d="M153.25,96.42c-.21-2.09,.48-5.77,3.27-5.53,.06,0,.1,.08,.07,.13-.53,1.15-1.05,1.68-1.83,2.52-.6,.82-1.06,1.82-1.36,2.89-.02,.08-.14,.07-.15-.01h0Z"/><path class="w" d="M163.18,131.83c.49,.83,1.08,1.59,1.75,2.18,.86,.57,1.35,.97,1.9,1.98,.03,.05,0,.11-.05,.13-1.19,.41-2.27-.33-2.75-1.36-.56-.9-.91-1.88-.98-2.89,0-.08,.11-.11,.14-.04h0Z"/><g class="v"><path class="o" d="M190.11,77.91l-.72,1.49c-.35,.39-.67,.8-.99,1.21-1.25,1.67-2.29,3.5-3,5.46-.32,1.05-.67,1.99-1.29,2.92-.49-2.21,.77-4.31,1.73-6.22,1.14-1.81,2.17-4.01,4.27-4.85h0Z"/></g><g class="v"><path class="o" d="M191.33,81.42l-.63,1.53c-.33,.41-.62,.84-.91,1.27-1.15,1.74-2.08,3.63-2.68,5.62-.26,1.06-.55,2.02-1.11,2.99-.62-2.18,.52-4.35,1.36-6.32,1.03-1.88,1.93-4.13,3.97-5.09h0Z"/></g></g></g></g></svg>